<?xml version="1.0" encoding="utf-8"?>
<!-- Generator: Adobe Illustrator 25.4.1, SVG Export Plug-In . SVG Version: 6.00 Build 0)  -->
<svg version="1.1" id="Layer_1" xmlns="http://www.w3.org/2000/svg" xmlns:xlink="http://www.w3.org/1999/xlink" x="0px" y="0px"
	 viewBox="0 0 92.7 134.9" style="enable-background:new 0 0 92.7 134.9;" xml:space="preserve">
<style type="text/css">
	.st0{fill:#001300;}
	.st1{fill:#FFFFFF;}
</style>
<rect y="45.1" class="st0" width="22.8" height="81"/>
<path class="st0" d="M12.4,1.3h17.5c6.8,0,12.4,5.5,12.4,12.4v37.9c0,6.8-5.5,12.4-12.4,12.4H12.4C5.5,64,0,58.4,0,51.6V13.7
	C0,6.8,5.5,1.3,12.4,1.3z"/>
<rect x="22.1" y="14.2" class="st1" width="0.4" height="36.9"/>
<path class="st0" d="M30.2,125H12.1C5.4,125,0,119.2,0,112.1V74.4c0-7.1,5.4-12.8,12.1-12.8h18.1c6.6,0,12.1,5.8,12.1,12.8L41.7,126
	c-1,0.3-2,0.5-3,0.6C35.8,126.8,32.8,126.3,30.2,125z"/>
<path class="st0" d="M65,120.6H23.2c0,7.1,9.4,12.9,20.9,12.9S65,127.7,65,120.6z"/>
<rect x="41.8" y="1.2" class="st1" width="0.4" height="120"/>
<path class="st0" d="M42.2,125.7c-3.5-3.7-8.6-5.4-13.5-4.5c-3,0.5-5.6,2.1-7.6,4.5H0c0,4.4,9.4,7.9,21.1,7.9S42.2,130,42.2,125.7z"
	/>
<rect x="65.7" y="61.5" class="st0" width="6.1" height="18.2"/>
<path class="st0" d="M42.2,10.6H65c0-5.1-5.1-9.4-11.4-9.4S42.2,5.4,42.2,10.6z"/>
<rect x="42.2" y="10.3" class="st0" width="22.8" height="111.2"/>
<rect x="69.9" y="10.3" class="st0" width="22.8" height="114.5"/>
<path class="st0" d="M92.7,124.1H69.9c0,5.3,5.1,9.5,11.4,9.5S92.7,129.3,92.7,124.1z"/>
<path class="st0" d="M69.9,11h22.7c0-5.4-5.1-9.8-11.4-9.8S69.9,5.6,69.9,11z"/>
<rect x="21.9" y="74.3" class="st1" width="0.4" height="36.9"/>
</svg>
