<svg id="Layer_1" data-name="Layer 1" xmlns="http://www.w3.org/2000/svg" width="365.51" height="317.05" viewBox="0 0 365.51 317.05"><defs><style>.cls-1{fill:#f59ba8;}.cls-1,.cls-2{isolation:isolate;}.cls-2{fill:#2b328e;}</style></defs><rect class="cls-1" x="3.2" y="58.15" width="22.75" height="80.97"/><path class="cls-1" d="M26,139.08l-11.37,0L3.2,139c0,2.81,5.12,5.11,11.41,5.12S26,141.89,26,139.08Z"/><rect class="cls-1" x="45.44" y="4.11" width="45.59" height="80.22" rx="15.11"/><rect class="cls-1" x="90.1" y="33.07" width="22.42" height="78.48"/><path class="cls-1" d="M112.54,111.49H101.32l-11.23,0c0,7.05,5,12.78,11.17,12.78S112.51,118.54,112.54,111.49Z"/><rect class="cls-1" x="3.2" y="4.11" width="42.24" height="80.22" rx="14"/><rect class="cls-1" x="67.79" y="21.63" width="0.45" height="45.19"/><rect class="cls-1" x="25.74" y="21.63" width="0.41" height="45.19"/><rect class="cls-1" x="90.15" y="4.11" width="42.24" height="73.55" rx="14"/><polygon class="cls-1" points="140.37 106.15 119.75 115.36 90.15 43.22 110.76 34.01 140.37 106.15"/><path class="cls-1" d="M140.36,106.08,130,110.68l-10.33,4.6c2.64,6.5,9.39,9.7,15.09,7.16S143,112.57,140.36,106.08Z"/><rect class="cls-1" x="111.07" y="19.7" width="0.41" height="40.68"/><rect class="cls-1" x="171.72" y="-47.9" width="24.01" height="128.03" rx="12.01" transform="translate(199.85 -167.61) rotate(90)"/><rect class="cls-1" x="163.43" y="16.12" width="28.58" height="161.12" rx="14.29" transform="translate(355.45 193.36) rotate(-180)"/><rect class="cls-1" x="193.34" y="36.3" width="21.98" height="143.23" rx="4.75"/><path class="cls-1" d="M193.41,40.4l21.11,3.78,20.87.13a13.3,13.3,0,0,0-1-4.24c-2.85-6.53-11.21-11.23-19.81-11.64-7.28-.34-16.35,2.33-19.8,8.27A10.72,10.72,0,0,0,193.41,40.4Z"/><rect class="cls-1" x="198.95" y="79.25" width="19.34" height="44.1" rx="9.53" transform="translate(309.92 -107.33) rotate(90)"/><path class="cls-1" d="M219.12,65.52h0c-9.14,0-16.62-6.39-16.62-14.2v-5c0-7.81,7.48-14.2,16.62-14.2h0a19.64,19.64,0,0,1,3.79.37,18.3,18.3,0,0,1,6,2.39c.3.19.94.79,1.91,1.41.17.11.34.21.58.39a9,9,0,0,1,1.27,1.15c2.84,3.18,3,7.92,3,7.92s0,.23,0,.57v5C235.73,59.13,228.26,65.52,219.12,65.52Z"/><rect class="cls-1" x="279.52" y="13.24" width="20.06" height="153.07"/><path class="cls-1" d="M319.64,166.3H279.52c0,9.63,9,17.43,20.06,17.43S319.64,175.93,319.64,166.3Z"/><rect class="cls-1" x="299.58" y="104.56" width="20.06" height="61.74"/><rect class="cls-1" x="299.58" y="102.82" width="0.33" height="61.38"/><path class="cls-1" d="M279.52,13.41h20.06c0-2.4-4.49-4.34-10-4.34S279.52,11,279.52,13.41Z"/><ellipse class="cls-1" cx="310.19" cy="92.22" rx="9.45" ry="8.85"/><rect class="cls-1" x="319.92" y="3.45" width="45.59" height="313.6" rx="15.11"/><rect class="cls-1" x="342.27" y="71.93" width="0.45" height="176.64"/><rect class="cls-1" x="235.17" y="3.45" width="45.59" height="137.74" rx="15.11"/><rect class="cls-1" x="257.52" y="33.52" width="0.45" height="77.58"/><path class="cls-1" d="M215.33,175.42l-11-.06-11-.05c0,4.64,5,8.42,11,8.45S215.35,180.06,215.33,175.42Z"/><path class="cls-1" d="M279.52,13.51l10,0,10,0c0-5-4.56-9-10.1-9S279.48,8.57,279.52,13.51Z"/><rect class="cls-2" y="54.71" width="22.75" height="80.97"/><path class="cls-2" d="M22.76,135.64l-11.38,0L0,135.58c0,2.81,5.13,5.1,11.41,5.12S22.77,138.45,22.76,135.64Z"/><rect class="cls-2" x="42.24" y="0.67" width="45.59" height="80.22" rx="15.11"/><rect class="cls-2" x="86.9" y="29.63" width="22.42" height="78.48"/><path class="cls-2" d="M109.34,108H86.9c0,7,5,12.77,11.17,12.78S109.31,115.1,109.34,108Z"/><rect class="cls-2" y="0.67" width="42.24" height="80.22" rx="14"/><rect class="cls-1" x="64.59" y="18.19" width="0.45" height="45.19"/><rect class="cls-1" x="22.55" y="18.19" width="0.41" height="45.19"/><rect class="cls-2" x="86.95" y="0.67" width="42.24" height="73.55" rx="14"/><polygon class="cls-2" points="137.17 102.7 116.56 111.92 86.95 39.78 107.57 30.56 137.17 102.7"/><path class="cls-2" d="M137.16,102.64l-10.32,4.59-10.32,4.61c2.63,6.49,9.38,9.69,15.09,7.15S139.79,109.13,137.16,102.64Z"/><rect class="cls-1" x="107.87" y="16.26" width="0.41" height="40.68"/><rect class="cls-2" x="168.53" y="-51.34" width="24.01" height="128.03" rx="12.01" transform="translate(193.21 -167.86) rotate(90)"/><rect class="cls-2" x="160.24" y="12.67" width="28.58" height="161.12" rx="14.29" transform="translate(349.05 186.47) rotate(-180)"/><rect class="cls-2" x="190.14" y="32.86" width="21.98" height="143.23" rx="4.75"/><path class="cls-2" d="M190.21,37l21.12,3.78,20.86.14a13,13,0,0,0-1.05-4.24c-2.85-6.53-11.21-11.24-19.8-11.65-7.29-.34-16.36,2.34-19.81,8.27A10.93,10.93,0,0,0,190.21,37Z"/><rect class="cls-2" x="195.76" y="75.8" width="19.34" height="44.1" rx="9.53" transform="translate(303.28 -107.57) rotate(90)"/><path class="cls-2" d="M215.92,62.08h0c-9.14,0-16.62-6.39-16.62-14.2v-5c0-7.81,7.48-14.2,16.62-14.2h0a19.06,19.06,0,0,1,3.8.38,17.81,17.81,0,0,1,6,2.39c.3.19.94.78,1.92,1.4l.58.39a9.7,9.7,0,0,1,1.26,1.16c2.84,3.17,3,7.91,3,7.91s0,.23,0,.57v5C232.54,55.69,225.06,62.08,215.92,62.08Z"/><rect class="cls-1" x="212.12" y="39.68" width="0.63" height="22.86"/><rect class="cls-2" x="276.32" y="9.79" width="20.06" height="153.07"/><path class="cls-2" d="M316.44,162.28H276.32c0,9.63,9,17.43,20.06,17.43S316.44,171.91,316.44,162.28Z"/><rect class="cls-2" x="296.38" y="101.11" width="20.06" height="61.74"/><rect class="cls-1" x="296.38" y="99.37" width="0.33" height="64.17"/><path class="cls-2" d="M276.32,10h20.06c0-2.4-4.49-4.34-10-4.34S276.32,7.57,276.32,10Z"/><ellipse class="cls-2" cx="306.99" cy="88.77" rx="9.45" ry="8.85"/><rect class="cls-2" x="316.72" width="45.59" height="313.6" rx="15.11"/><rect class="cls-1" x="339.07" y="68.48" width="0.45" height="176.64"/><rect class="cls-2" x="231.98" width="45.59" height="137.74" rx="15.11"/><rect class="cls-1" x="254.32" y="30.08" width="0.45" height="77.58"/><path class="cls-2" d="M212.14,172l-11-.05-11-.06c0,4.64,5,8.43,11,8.46S212.16,176.61,212.14,172Z"/><path class="cls-2" d="M276.32,10.07l10,0,10,0c0-4.94-4.56-9-10.1-9S276.28,5.13,276.32,10.07Z"/></svg>