<svg xmlns="http://www.w3.org/2000/svg" width="841.89" height="595.28" viewBox="0 0 841.89 595.28"><defs><style>.cls-1{fill:#364877;}.cls-2{fill:#221f20;}.cls-3{fill:#fff;}.cls-4{fill:#949598;}.cls-5{fill:#53af58;}.cls-6{fill:#e6e7e8;}.cls-7{fill:#a9b44e;}.cls-10,.cls-8{fill:#414042;}.cls-9{fill:#58595b;}.cls-10{opacity:0.51;}.cls-11{fill:#30629c;}.cls-12{fill:#150f45;}.cls-13{fill:#010;}.cls-14{fill:#818284;}.cls-15{fill:#6d6e71;}.cls-16{fill:#af3034;}.cls-17{fill:#c9b790;}.cls-18{fill:#00aae9;}.cls-19{fill:#26225e;}.cls-20{fill:#3974b7;}.cls-21{fill:#fbe3b1;}.cls-22{fill:#c0b59e;}.cls-23{fill:#eaa9c7;opacity:0.52;}.cls-24{fill:#dd5041;}.cls-25{fill:#574b43;}.cls-26{fill:#ea983e;}.cls-27{fill:#5fb257;}</style></defs><g id="Layer_2" data-name="Layer 2"><rect class="cls-1" x="-44.91" y="-2.58" width="938.04" height="602.76"/><rect class="cls-2" x="118.61" y="-0.7" width="42.06" height="234.36" transform="translate(-17.95 25.74) rotate(-9.9)"/><rect class="cls-2" x="51.26" y="3.69" width="76.64" height="234.36" transform="matrix(0.99, -0.17, 0.17, 0.99, -19.45, 17.2)"/><rect class="cls-2" x="-6.84" y="64.85" width="65.11" height="153.77" transform="translate(-23.99 6.53) rotate(-9.9)"/><path class="cls-2" d="M-58.47,80.92c1.26,35.74,6,71.3,8.26,107,1.69,26.68,1.66,53.34-1.47,79.82l69.87-6.28L-9.32,28.32l-48.09,4.33A394.72,394.72,0,0,0-58.47,80.92Z"/><rect class="cls-2" x="161.04" y="-19.19" width="83.07" height="234.36" transform="translate(-8.98 21.28) rotate(-5.88)"/><path class="cls-2" d="M460.08,591.09A31.26,31.26,0,0,1,472.53,595c37.35-.05,75-2.22,112.27.49,2.87.21,5.73.46,8.6.74l2.39,0c15.05.29,30.12.59,45.18.55A30.12,30.12,0,0,1,649,595a74.58,74.58,0,0,1,10.13-.14c10.23-.23,20.45-.68,30.67-1l4.26-12.91L388.52,480.09,351.77,591.45q13.49-.24,27-.54C405.82,590.29,433.08,588.21,460.08,591.09Z"/><rect class="cls-2" x="453.45" y="399.4" width="321.79" height="65.11" transform="translate(-41.04 65.24) rotate(-5.88)"/><rect class="cls-2" x="453.45" y="311.7" width="321.79" height="65.11" transform="translate(-79.74 225.19) rotate(-19.53)"/><rect class="cls-2" x="161.21" y="115.67" width="234.36" height="65.11" transform="matrix(0.13, -0.99, 0.99, 0.13, 94.11, 404.17)"/><rect class="cls-2" x="223.33" y="83.92" width="247.41" height="65.11" transform="translate(141.11 419.12) rotate(-74.32)"/><rect class="cls-2" x="436.42" y="221.14" width="321.79" height="89.26" transform="translate(-55.64 298.37) rotate(-26.84)"/><rect class="cls-2" x="381.79" y="186.2" width="224.81" height="71.96" transform="translate(-37.15 328.35) rotate(-35.51)"/><rect class="cls-2" x="306.95" y="91.91" width="321.79" height="65.11" transform="translate(70.58 401.15) rotate(-49.75)"/><path class="cls-3" d="M736,28.09s38.78,7,38.78,69.86S736,167.88,736,167.88c48.92,0,88.58-31.29,88.58-69.89S785,28.09,736,28.09Z"/><path class="cls-4" d="M451.17,590.62c27.13-35.62,52-84.95,52.06-146.15.08-135.25-121.29-214.1-153.86-233.23C238.66,146.18,106.53,155.58,16.82,197.5c-15.55,7.26-39.27,18.64-62.75,37.33a403.25,403.25,0,0,1-4.44,51.3q-.1,3.27-.28,6.52a22.45,22.45,0,0,1,.35,3.75c.07,9.26,1.24,18.46,1.3,27.72A113.56,113.56,0,0,1-50.55,342c-.09,1-.17,1.93-.22,2.9-.12,2.15-.14,4.3-.11,6.46.26,17.75,2,35.21.23,52.82a26,26,0,0,1,3.12,11.46c1,25.45,0,50.89-.82,76.32-.72,22.54-.74,45.06-.74,67.61,0,10.74-.36,21.55.14,32.28.06,1.43.18,2.85.3,4.27,0,.1,0,.18.06.29a302.79,302.79,0,0,1,43.76-1.94c3.89.1,7.78.29,11.66.52,4.74-1.55,9.5-1.31,14.75-.53-7.49-1.11.41-.06,2,0,1.74.11,3.48.16,5.22.18,3.54,0,7.07-.1,10.6-.34,4.2-.28,8.38-.76,12.56-1.24H52l.57-.08c1.81-.28,3.62-.53,5.44-.8,17.32-2.56,34.58-5.44,52.15-4.89,29.92.93,59.53,5.86,89.44,6.87s60,.07,90-1c29.44-1,58.85-1.3,88.29-2C402.28,590.65,426.81,589,451.17,590.62Z"/><path class="cls-5" d="M436.6,376.53c-67.6-138.68-272.86-137.45-297.53-137-30.61.61-130.64,2.6-204.57,71.76a232,232,0,0,0-17.07,17.75,20.23,20.23,0,0,1,.36,3.64c.08,9.13,1.32,18.21,1.39,27.33a105.14,105.14,0,0,1-1.65,17.59c-.1.95-.19,1.9-.24,2.86-.13,2.12-.14,4.24-.11,6.37.27,17.5,2.15,34.72.24,52.09a24.2,24.2,0,0,1,3.32,11.3c1,25.1,0,50.19-.87,75.27-.67,19.48-.77,39-.79,58.44a311.48,311.48,0,0,0,39.09,42.54c2.65,0,5.29,0,7.95.11,4.14.11,8.26.29,12.39.51,5-1.53,10.1-1.28,15.67-.52-7.95-1.09.44-.06,2.11,0,1.85.11,3.7.16,5.55.18,3.76,0,7.52-.1,11.27-.33,4.46-.28,8.9-.75,13.35-1.23h.09l.6-.08,5.78-.78c18.41-2.53,36.76-5.37,55.43-4.83,31.8.92,63.27,5.78,95.06,6.77s63.78.08,95.65-.93c33.43-1.07,57.18,3.05,93.83-1.95,18-2.45,27-3.68,32.7-6.07C455.42,596.46,480.89,467.4,436.6,376.53Z"/><path class="cls-6" d="M25.72,226.26l-7.5-10.06c-3.11,1.46-7.77,3.64-13.48,6.26-9,4.11-11.17,5-14.75,6.84a151.85,151.85,0,0,0-17,10l-.48,15.4q10.38-6.26,21.76-12.49C5.06,236.32,15.58,231,25.72,226.26Z"/><path class="cls-6" d="M56.36,204.76a153.12,153.12,0,0,1,18.94-5.57c3.9-.87,6.28-1.24,16-3.05,6.17-1.16,11.23-2.14,14.59-2.8l4.83,11.58c-11,2.16-22.48,4.74-34.4,7.84Q63.74,216,52.15,219.59,54.25,212.18,56.36,204.76Z"/><path class="cls-6" d="M158.5,189.65a151.54,151.54,0,0,1,19.74.62c4,.39,6.35.78,16.12,2.08,6.23.83,11.33,1.48,14.74,1.9l1,12.51c-11.12-1.38-22.84-2.51-35.13-3.29q-12.94-.83-25.07-1.05Q154.19,196,158.5,189.65Z"/><path class="cls-6" d="M304,239.34q1.75-6,3.53-12c-3-1.6-7.58-4-13.11-7-8.67-4.68-10.74-5.89-14.33-7.67A151.8,151.8,0,0,0,261.85,205l-12.6,8.88q11.24,4.53,23.06,9.88C283.53,228.88,294.08,234.1,304,239.34Z"/><path class="cls-6" d="M475.42,427.89l11.72-4.5c-.57-3.38-1.41-8.46-2.39-14.67-1.54-9.73-1.84-12.11-2.6-16a152.9,152.9,0,0,0-5-19.1L462.42,369q3.21,11.69,6.14,24.32C471.32,405.28,473.58,416.85,475.42,427.89Z"/><path class="cls-6" d="M479.17,503.86c2.65-9.5,3.37-11.79,4.3-15.68a153,153,0,0,0,3.37-19.46L475.39,458.4c-1.29,8-2.78,16.21-4.53,24.68-2.48,12.06-5.23,23.52-8.14,34.33l12.52.78C476.13,514.88,477.48,509.91,479.17,503.86Z"/><path class="cls-6" d="M442.43,589.86c2.8-3.49,4.08-5.09,5.77-7.37a152.16,152.16,0,0,0,10.67-16.62q-3.27-7-6.53-14-6.43,10.27-13.77,21-6,8.7-12,16.73C431.89,589.59,437.16,589.66,442.43,589.86Z"/><path class="cls-4" d="M765.8,603.56l-234.15,2.23c-9.88-.26-24.61-.63-42.52-1-66.5-1.28-66.24-.11-70.8-1.32-12.11-3.19-31.51-155.82-55.22-216.77-19.23-49.48-70-112.15-215.64-157,110.78-2.84,197.53,13.17,242.17,32.94,19.75,8.75,47.06,24.82,65.55,40.88,8.57,7.44,22.68,19.85,35.36,39.49,3.13,4.84,1.95,3.86,10.05,16.92,3.95,6.36,16.31,26.29,27.57,39.95,4,4.85,13.28,15.95,60.5,46,36.47,23.21,68.67,37.87,111.19,78.43A451.46,451.46,0,0,1,765.8,603.56Z"/><path class="cls-6" d="M601,564.43q2.79-5.61,5.59-11.23h0s-12.1-10.53-24.44-19.27c-3.73-2.64-9.36-6.45-16.61-10.67l-14,6.53q10.26,6.44,21,13.77C582.7,550.54,592.18,557.54,601,564.43Z"/><path class="cls-6" d="M370.29,311.48l9.51-8.19h0s-7.08-14.39-15.06-27.23c-2.41-3.88-6.13-9.58-11.18-16.27l-15.4.6q7,9.92,14,20.82C358.8,291.58,364.83,301.7,370.29,311.48Z"/><path class="cls-6" d="M430.43,394.52l9.23-8.49c-1.76-2.93-4.41-7.35-7.6-12.76-5-8.49-6.16-10.6-8.32-14A152.1,152.1,0,0,0,412,343.39l-15.37,1.1q7.29,9.69,14.65,20.37C418.3,375,424.65,384.93,430.43,394.52Z"/><path class="cls-6" d="M505.66,492.22l8.6-9.13h0s-8.51-13.58-17.78-25.53c-2.8-3.61-7.08-8.9-12.8-15l-15.25,2.19q7.95,9.15,16.06,19.27C492.17,473.61,499.21,483.06,505.66,492.22Z"/><path class="cls-4" d="M736,28.09S794.21,36.72,794.21,98,736,167.88,736,167.88c48.92,0,88.58-31.29,88.58-69.89S785,28.09,736,28.09Z"/><rect class="cls-7" x="186.95" y="92.31" width="36.97" height="11.36" transform="matrix(0.08, 1, -1, 0.08, 286.36, -114.75)"/><rect class="cls-7" x="181.7" y="28.06" width="36.97" height="11.36" transform="matrix(0.08, 1, -1, 0.08, 217.5, -168.53)"/><rect class="cls-7" x="520.96" y="40.25" width="36.97" height="11.36" transform="translate(931.66 -327.27) rotate(131.56)"/><rect class="cls-7" x="475.71" y="91.29" width="36.97" height="11.36" transform="translate(894.59 -208.51) rotate(131.56)"/><rect class="cls-7" x="662.71" y="217.13" width="36.97" height="17.75" transform="translate(-33.42 292.59) rotate(-23.68)"/><rect class="cls-7" x="706.1" y="415.93" width="36.97" height="11.36" transform="translate(1476.85 791.6) rotate(176)"/><rect class="cls-7" x="656.77" y="419.32" width="36.97" height="11.36" transform="translate(1378.54 801.81) rotate(176)"/><rect class="cls-7" x="603.48" y="423.05" width="36.97" height="11.36" transform="translate(1272.34 812.99) rotate(176)"/><rect class="cls-7" x="7.23" y="96.73" width="36.97" height="11.36" transform="translate(-71.69 143.18) rotate(-98.62)"/><path class="cls-8" d="M354.55,213.4q-1.77-1.08-3.6-2.16-2.34-1.4-4.63-2.7Q375.24,106.29,404.15,4l8.92,2.5Q383.81,110,354.55,213.4Z"/><path class="cls-8" d="M453.36,301.58c-1.38-1.54-2.79-3.25-4.19-5.13-.82-1.1-1.58-2.18-2.29-3.24L603,181.05l5.43,7.51Z"/><path class="cls-8" d="M538.22,410.07q-2.13-2-4.3-4.09c-1.39-1.36-2.74-2.72-4-4.06l245.43-85.15,3.06,8.75Z"/><path class="cls-9" d="M412.62,593.44a87.22,87.22,0,0,0,15.15,14.48c12,8.68,23.83,10.89,26.93,12.18l7.78,3.25c15.59-.85,31.19-1.62,46.82-1.72,16-.1,32,.3,48,.78-5.91-7.38-12.21-15-18.91-22.92-37.56-44.14-61.69-64.61-90.79-93.12-32.51-31.85-43.52-44.74-48.38-50.88-1-1.32-1.75-2.26-1.92-2.47-5.68-7.48-12.44-17.62-23.46-41.18-1.59-3.4-3.83-8.48-8.33-18.64-8.42-19-9.28-21.52-11.41-26-7-14.7-15.39-24.34-23.86-34.13-7.27-8.39-20.7-22.65-43.89-39.1-44.1-31.28-96.1-51.07-117.21-58.6-1.62-.42-4.44-1.13-8-1.83-13.4-2.68-32.8-4.53-106.6,11.76A271.75,271.75,0,0,0,20.43,255c-5.89,2.09-11,4.15-15.49,6.08-30.79,13.12-59,31.85-57.49,35,3.16,6.45,139-44.79,186.51-37.1a228.93,228.93,0,0,1,35.55,9.26,191.72,191.72,0,0,1,27.23,12.45c27.51,15.26,33.69,30.65,93.48,117.48,48.19,70,45.89,64.6,52.17,75.77,51.72,92.11,52.52,93.64,52.52,93.64A136.71,136.71,0,0,0,412.62,593.44Z"/><polygon class="cls-10" points="71.01 483.28 71.21 426.12 71.42 368.96 131.54 397.75 191.67 426.55 131.34 454.92 71.01 483.28"/><polygon class="cls-2" points="79.88 469.6 79.88 417.58 79.88 365.57 135 391.58 190.13 417.58 135 443.59 79.88 469.6"/><path class="cls-8" d="M1.88,68.39c-2,.21-4.25.42-6.58.62l-4,.31Q-10,48.79-11.31,28.26l9.23-.76Z"/><path class="cls-2" d="M555.84,438.7c-2.93.43-5.14-3.32-7.49-6.74-10.73-15.62-22.09-21.25-19.7-25.29a3.47,3.47,0,0,1,1.81-1.4l6.46-5A24.42,24.42,0,0,0,548,410.68a24.16,24.16,0,0,0,3.52,1.26,7.61,7.61,0,0,0-1.75,4.55c0,2.28,1.48,3.71,3.26,5.61,5.23,5.61,7.84,8.47,7.58,11.1S558.05,438.38,555.84,438.7Z"/><path class="cls-11" d="M658.23,393.52c-.32,12-9.61,4.6-17.24-18.37-12-36.28-8.14-57.11-2.6-58.93,6.7-2.21,19.81,22.35,12.68,39.85C647.92,363.81,658.5,383.67,658.23,393.52Z"/><path class="cls-12" d="M555.83,410.54c-16.19-3.82-19.9-6.49-19.8-8.31.29-5,30.55-4.1,32.57-13.84.43-2.07-1-1.77-4.69-13.46-1.77-5.61-2-7.33-3.74-10.4a18.89,18.89,0,0,1-2-4.34,17.81,17.81,0,0,1-.71-6.27c.3-7.44,1.56-17.7,1.69-18.75l16.42,2.66c12.09,3.91,16,9.12,17.26,13.11,2.88,8.69-4.56,17-4.34,37.87,0,1.42.06,2.58.09,3.3.08,2.49.12,4,.13,4.24.16,5.39.29,8.12-.61,9.94-3.42,6.88-19.26,5.68-24.81,5.26A66.49,66.49,0,0,1,555.83,410.54Z"/><ellipse class="cls-13" cx="455.06" cy="360.45" rx="53.04" ry="50.77" transform="translate(-121.33 429.57) rotate(-45.22)"/><ellipse class="cls-3" cx="454.84" cy="360.18" rx="45.83" ry="44.78" transform="translate(-114.32 472.71) rotate(-49.56)"/><polygon class="cls-14" points="427.58 324.54 453.14 354.74 456.76 314.75 461.12 315.05 457.5 355.04 488.19 328.69 490.99 331.99 460.3 358.35 500.08 361.07 499.68 365.45 459.9 362.73 485.47 392.94 482.11 395.82 456.54 365.62 452.92 405.61 448.57 405.31 452.19 365.32 421.5 391.68 418.7 388.37 449.38 362.01 409.61 359.29 410 354.91 449.78 357.63 424.21 327.43 427.58 324.54"/><path class="cls-3" d="M499.52,341.68a16.82,16.82,0,0,1,1.73,2.14A25.93,25.93,0,0,1,505,354c1.33,10-6,22.24-6.21,22.16a55.29,55.29,0,0,0,3.77-14c.46-3.66.82-6.82.27-8.91-.61-2.33-1.66-5.76-1.66-5.76L500,343.14"/><polygon class="cls-3" points="499.69 364.72 499.86 363.78 460.25 361.14 460.09 362.08 499.69 364.72"/><polygon class="cls-3" points="457.81 364.58 457.05 365.23 482.59 395.41 483.35 394.76 457.81 364.58"/><polygon class="cls-3" points="453.76 365.43 452.81 365.45 449.16 405.26 450.11 405.24 453.76 365.43"/><polygon class="cls-15" points="460.93 362.86 459.48 364.1 516.64 431.62 518.08 430.38 460.93 362.86"/><polygon class="cls-15" points="543.47 367.03 541.77 366.57 517.98 429.56 519.67 430.02 543.47 367.03"/><polygon class="cls-15" points="622.18 480.93 622.71 479.78 526.21 445.5 525.69 446.65 622.18 480.93"/><polygon class="cls-15" points="628.53 467.37 629.98 466.13 545.41 366.21 543.96 367.45 628.53 467.37"/><polygon class="cls-16" points="628.83 465.18 632.77 461.8 548.67 362.44 544.74 365.82 628.83 465.18"/><polygon class="cls-16" points="622.75 480.14 624.87 475.51 528.2 441.17 526.09 445.8 622.75 480.14"/><polygon class="cls-16" points="558.58 339.65 553.97 338.4 519.38 429.94 523.99 431.19 558.58 339.65"/><ellipse class="cls-13" cx="602.22" cy="535.85" rx="53.04" ry="50.77" transform="translate(-202.33 585.89) rotate(-45.22)"/><ellipse class="cls-3" cx="602.01" cy="535.58" rx="45.83" ry="44.78" transform="translate(-196.11 646.34) rotate(-49.56)"/><polygon class="cls-16" points="546.14 367.56 546.94 362.67 455.96 358.03 455.16 362.92 546.14 367.56"/><polygon class="cls-14" points="574.74 499.94 600.31 530.14 603.93 490.15 608.28 490.45 604.66 530.44 635.35 504.08 638.15 507.39 607.47 533.75 647.24 536.47 646.85 540.85 607.07 538.13 632.63 568.34 629.27 571.22 603.71 541.02 600.09 581.01 595.73 580.72 599.35 540.72 568.66 567.08 565.86 563.77 596.55 537.41 556.77 534.69 557.17 530.31 596.94 533.03 571.38 502.82 574.74 499.94"/><polygon class="cls-16" points="512.82 432.84 516.76 429.46 457.34 359.27 453.41 362.65 512.82 432.84"/><polygon class="cls-3" points="607.45 490.35 606.5 490.37 602.85 530.18 603.8 530.17 607.45 490.35"/><polygon class="cls-16" points="597.5 538.51 603.13 540.21 650.5 423.66 644.87 421.96 597.5 538.51"/><ellipse class="cls-13" cx="520.04" cy="438.75" rx="11.06" ry="9.89" transform="translate(-159.88 464.36) rotate(-42.31)"/><ellipse class="cls-3" cx="520.04" cy="438.75" rx="8.1" ry="7.25" transform="translate(-159.88 464.36) rotate(-42.31)"/><ellipse class="cls-15" cx="520.04" cy="438.75" rx="4.27" ry="3.82" transform="translate(-159.88 464.36) rotate(-42.31)"/><path class="cls-15" d="M517,438.13c-2.51,1.67-4.12,4.5-5.71,7a35.82,35.82,0,0,0-2.14,3.75,10.63,10.63,0,0,0-1.47,5,2.5,2.5,0,0,0,5,0,2.57,2.57,0,0,1,0-.48c0,.25,0,.23,0-.07s.2-.65.32-1,.13-.32,0-.09c.07-.15.14-.3.2-.45s.28-.59.43-.88c.58-1.14,1.24-2.24,1.92-3.31s1.41-2.13,2.14-3.18l.51-.73c.17-.23.18-.24,0,0l.28-.35c.19-.22.4-.43.61-.64l.33-.29c-.21.17-.2.17,0,0a2.5,2.5,0,0,0-2.52-4.32Z"/><polygon class="cls-9" points="505.84 452.29 512.15 459.74 514.37 457.83 508.06 450.38 505.84 452.29"/><path class="cls-3" d="M556.75,554.66a18.93,18.93,0,0,1-1.53-2.54,33.71,33.71,0,0,1-2.91-12.19c-.63-12,7.25-27.11,7.46-27a85.67,85.67,0,0,0-4.57,17c-.68,4.44-1.24,8.27-.84,10.79.43,2.79,1.23,6.89,1.23,6.89l.75,5.3"/><polygon class="cls-3" points="637.82 507.01 637.24 506.32 607.33 532.02 607.91 532.7 637.82 507.01"/><polygon class="cls-3" points="646.86 540.12 647.03 539.18 607.42 536.53 607.25 537.48 646.86 540.12"/><polygon class="cls-3" points="604.97 539.98 604.21 540.63 629.75 570.81 630.51 570.16 604.97 539.98"/><polygon class="cls-3" points="574.18 500.41 573.42 501.07 599.12 531.42 599.88 530.77 574.18 500.41"/><polygon class="cls-3" points="600.92 540.83 599.97 540.85 596.32 580.66 597.27 580.64 600.92 540.83"/><polygon class="cls-3" points="598.07 537.91 597.49 537.23 566.17 564.13 566.75 564.81 598.07 537.91"/><polygon class="cls-3" points="557.17 530.77 557 531.71 597.56 534.42 597.73 533.48 557.17 530.77"/><ellipse class="cls-13" cx="602.37" cy="535.27" rx="6.24" ry="5.58" transform="translate(-203.4 544.92) rotate(-42.31)"/><ellipse class="cls-3" cx="602.37" cy="535.27" rx="3.65" ry="3.26" transform="translate(-203.4 544.92) rotate(-42.31)"/><path class="cls-3" d="M410.35,378.5a19.37,19.37,0,0,1-1.53-2.53,33.54,33.54,0,0,1-2.91-12.19c-.63-12,7.25-27.12,7.45-27a85.86,85.86,0,0,0-4.56,17c-.68,4.44-1.24,8.27-.85,10.78.44,2.8,1.23,6.9,1.23,6.9l.76,5.3"/><polygon class="cls-3" points="456.39 359.5 456.97 360.18 490.7 331.21 490.12 330.53 456.39 359.5"/><polygon class="cls-3" points="427.04 325 426.28 325.65 452.58 356.72 453.34 356.06 427.04 325"/><polygon class="cls-3" points="410.1 355.59 409.93 356.53 451.67 359.31 451.84 358.37 410.1 355.59"/><polygon class="cls-3" points="419.23 389 419.81 389.68 453.54 360.71 452.96 360.02 419.23 389"/><ellipse class="cls-13" cx="455.43" cy="360.61" rx="6.24" ry="5.58" transform="translate(-124.11 400.51) rotate(-42.31)"/><ellipse class="cls-3" cx="455.3" cy="360.72" rx="3.65" ry="3.26" transform="translate(-124.21 400.45) rotate(-42.31)"/><path class="cls-2" d="M564.7,339.71c2.53,2.34,4.31,1.8,7.61,5.26,1.27,1.32,3.56,3.72,2.74,5.37-.9,1.81-5.07,1.73-5.78,1.71-8.31-.26-13.47-8.27-15.36-11.21-.64-1-7-11-4.12-13.94,1.65-1.64,6.09-.76,8.83,1.36C562.85,331.53,560.34,335.69,564.7,339.71Z"/><path class="cls-9" d="M650.5,423.66l-5.63-1.7c2.51-6.06,4.12-8,5.17-8.49a5.84,5.84,0,0,0,1.43-1.09,3.18,3.18,0,0,0,.68-2.19c0-2.17-2.27-6.93-8.08-12.05-.64-.56-1.71-1.47-1.46-2.49.28-1.19,2.2-1.91,3.42-2.28a11.23,11.23,0,0,0,5.26,4.4c2.4.89,3.77.26,5.19,1.16s2.75,3.3,2,9.86a7.33,7.33,0,0,1,.56.92h0a9.55,9.55,0,0,1,.41,2.4C659.52,413.06,656.55,418.17,650.5,423.66Z"/><path class="cls-3" d="M567.49,342.25c.42.36,1,.87,1.63,1.45a40,40,0,0,1,4.2,4.45c2.29,3.13-2,2.2-2.15,2.06s1.46.11,1.24-1.37a3.36,3.36,0,0,0-.89-2c-.77-.89-2-2.28-2-2.28l-1.41-1.66"/><path class="cls-17" d="M654.89,341.18q-4.62-8.6-9.25-17.2l17.28-1.11L675.65,341Z"/><path class="cls-18" d="M656.29,341.54l-6-18.37a1.54,1.54,0,0,1,1-1.94h0a1.52,1.52,0,0,1,1.92,1l6,18.36a1.55,1.55,0,0,1-1,1.94h0A1.51,1.51,0,0,1,656.29,341.54Z"/><path class="cls-19" d="M521.05,449.94l-13.88-13.85c9.47-11.72,18.8-23.59,28.38-35.2,17.13-20.78,17.69-20.36,19.35-24.57,0,0,2.9-7.34,3-39.47.26-1.24,2.93-13.09,10.93-18,8.66-5.31,21-.92,25.32,13.24A92.29,92.29,0,0,1,590.41,361c-3.6,11.89-7.08,13.85-8.88,25.25-.44,2.8-.83,6.5-3.48,10.21-3.38,4.74-8.22,6.41-10.95,7.56-5.51,2.3-11.08,7.49-22.23,17.87A161.76,161.76,0,0,0,521.05,449.94Z"/><path class="cls-18" d="M584.26,325.48A7.53,7.53,0,0,0,583,321c-2.77-3.87-9.23-3.08-9.3-4.05-.13-1.62,11.49-3.26,11.49-3.26,19.89-2.81,29.83-4.21,37.31-3.24,9.18,1.2,20.37,2.66,27.49,11.64a26.67,26.67,0,0,1,4.34,8.11A40.73,40.73,0,0,1,656,349.57c-.72,4.45-1.41,8.47-4.67,10.72A11.56,11.56,0,0,1,637,358.81l-44.19-7.87a28.74,28.74,0,0,1-8.52-25.46Z"/><path class="cls-20" d="M649.3,388.77c-2.58,9.91-10,2.56-12.92-17.56-4.57-31.77,3.13-48.58,8.76-49.37,6.8-.95,14.61,21.22,4.48,34.83C645.15,362.69,651.43,380.61,649.3,388.77Z"/><path class="cls-21" d="M650.59,397.1c-.84-6-.48-6.5-.1-6.73,1.39-.84,4.78,1.51,6.8,3.7,5.72,6.21,5.05,16.13,3.56,16.5S655,400,654.44,400.24c-.39.21,1.46,4.62.47,5.46-.43.36-1.31-.21-1.48-.32C652.51,404.79,651.48,403.47,650.59,397.1Z"/><path class="cls-21" d="M680.59,310.31c11.11-2.46,25.63,2.07,28.81,11.94,1.45,4.5.87,11.14-2.87,14.62-4.17,3.89-9.14.9-14.15,5.76-2.67,2.59-4.91,7-6,6.5a6,6,0,0,1-1.17-1.5c-.39-.58-.65-1-.68-1.06-1.16-1.83-15.33,5.39-20.9,1.42-1.85-1.32-2.3-3.54-3.18-7.94a27.41,27.41,0,0,1,.25-12.08C663.18,319.1,671.74,312.27,680.59,310.31Z"/><path class="cls-2" d="M708.43,311.82c-2.51-3.48-6.67-9.24-13.55-10.35-3.45-.56-8.32,1.5-18.06,5.61-7.27,3.06-8.86,4.39-10.06,5.94-3.1,4-2.65,8.14-4.92,8.65-2.83.64-6.12-5.18-6.28-5.05s2.78,7.82,7.86,8.47c6.48.82,10.64-10.46,15.82-9.2,3.83.93,2.5,7.25,8.38,10.1a18.75,18.75,0,0,0,9.46,1.95c1.3-.15,1.86-.4,2.6,0,1.39.69.69,6.57,2.91,10.45a11,11,0,0,0,7.32,4.86c.06-.1-5-2.54-4.62-3.83.14-.46,1-.73,1.54-.63,1.18.22,2.06,2.05,2.06,2.05h0c.76-2.89.9-3.23.9-3.23.87-2.17,2.76-2.86,3.69-3.69C716.88,330.83,714.16,319.75,708.43,311.82Z"/><ellipse class="cls-3" cx="690.45" cy="336.96" rx="3.78" ry="3.93" transform="translate(-67.62 461.86) rotate(-35.37)"/><ellipse class="cls-13" cx="691.65" cy="338.37" rx="1.86" ry="1.85" transform="translate(180.29 914.04) rotate(-74.45)"/><path class="cls-22" d="M687.48,334a6.91,6.91,0,0,1,3.5,2.48,7,7,0,0,1,1.88,3.87c2-1.75,2.48-4.59,1-6.34S689.52,332.28,687.48,334Z"/><path class="cls-13" d="M692.06,330.94c-.62-1,.36-.75,2.08.75,2.72,2.38,3.6,4.17,3.35,4.54s-2.46-1-3-2.63C694.32,332.86,692.58,331.72,692.06,330.94Z"/><path class="cls-13" d="M672.65,344.18c-.54-.19-.22-.74.81-1,1.61-.37,2.56.19,2.65.61s-1,1.1-1.78.36C674,343.85,673.1,344.33,672.65,344.18Z"/><ellipse class="cls-23" cx="683.73" cy="334.01" rx="0.76" ry="2.63" transform="translate(-71.23 238.69) rotate(-18.84)"/><path class="cls-2" d="M662.67,309.82l4.63,2.25c3.87,1.9,4.52,2.25,4.47,2.63-.11.81-3.4,1.66-6.11.63-3.81-1.45-4.91-6-5.06-6.71"/><path class="cls-2" d="M664.33,314c8.71-.63,10.86-.34,10.93.11.1.65-3.9,2.29-8,2.08a15.43,15.43,0,0,1-8.77-3.47"/><path class="cls-2" d="M655.83,315c.29.49,3.71,5.89,9.4,5.89,5.27,0,9.85-4.62,9.26-6-.23-.55-1.55-1.36-10.28.69"/><path class="cls-2" d="M658.47,317.93l4.62,2.25c3.88,1.9,4.53,2.24,4.48,2.63-.11.81-3.4,1.66-6.11.63-3.81-1.45-4.91-6-5.07-6.71"/><path class="cls-2" d="M669.11,310.75c8.71-.62,10.86-.34,10.93.12.1.64-3.9,2.29-8,2.08a15.5,15.5,0,0,1-8.77-3.47"/><path class="cls-2" d="M712.09,338.88l1.39-5c1.15-4.19,1.33-4.91,1-5.12-.68-.46-3.48,1.47-4.51,4.2-1.45,3.85,1.21,7.7,1.62,8.28"/><path class="cls-24" d="M685.17,295.08a31.33,31.33,0,0,1,18.28,4.31c11,6.77,13.27,18.58,15.07,27,.67,3.11,1.79,9.69-.69,11.25-.58.37-2.15.94-10.18-4.28-4.07-2.65-5.88-4.23-9.62-7.08-4.85-3.69-9-7.86-17.27-15.5l-3.94-3.66h0c-.39-.48-2.74-3.48-1.93-7.07a6.3,6.3,0,0,1,1.92-3.45,6.08,6.08,0,0,1,3.89-1.47"/><path class="cls-25" d="M713.33,327a36,36,0,0,0-22.11-26.13,1,1,0,0,1,0-1.43,1,1,0,0,1,1.41.25A35,35,0,0,1,706.33,309a35.41,35.41,0,0,1,8.38,16.77,1,1,0,0,1,0,1.44A1,1,0,0,1,713.33,327Z"/><path class="cls-25" d="M709.39,330.38a57,57,0,0,0-9.39-15.2,56.36,56.36,0,0,0-12.72-10.92,1,1,0,0,1,0-1.44,1,1,0,0,1,1.4.25,50.8,50.8,0,0,1,22.12,26.13,1,1,0,0,1,0,1.43A1,1,0,0,1,709.39,330.38Z"/><path class="cls-25" d="M690.07,319.85c-5,1.54-10.18,2.1-15,4.29a1.88,1.88,0,0,0,1.89,3.24c4.44-2,9.42-2.48,14-3.91,2.3-.71,1.32-4.33-1-3.62Z"/><path class="cls-25" d="M676.33,308.56c-2.92,5-2.85,10.85-2.62,16.45a1.88,1.88,0,1,0,3.75,0c-.2-4.9-.46-10.16,2.1-14.56,1.22-2.09-2-4-3.23-1.89Z"/><path class="cls-25" d="M674.63,324.08c-6.15,3.44-10.72,8.6-15.15,14a1.93,1.93,0,0,0,0,2.65,1.9,1.9,0,0,0,2.65,0c4.23-5.12,8.53-10.1,14.39-13.38,2.11-1.18.22-4.42-1.89-3.24Z"/><path class="cls-2" d="M662.08,340.07a3.65,3.65,0,0,0-.23-.54c-.08-.12-.22-.28-.31-.39l0-.05a2.38,2.38,0,0,0-1-.59l-.09,0-.29,0-.3,0c-.11,0-.24,0-.34,0a1.82,1.82,0,0,0-.78.25,2,2,0,0,0-1,1.21,1.45,1.45,0,0,0,0,.77,1.6,1.6,0,0,0,.23.72,5.9,5.9,0,0,0,.37.47,2.49,2.49,0,0,0,1.23.81,1.68,1.68,0,0,0,.59.07,2,2,0,0,0,1.38-.58,2.15,2.15,0,0,0,.6-1.51c0-.1,0-.24,0-.31s0-.2,0-.3a2.39,2.39,0,0,0-.22-.52,1.79,1.79,0,0,0-.36-.46,2,2,0,0,0-.91-.52l0,0-.25,0-.28,0a1.35,1.35,0,0,0-.29,0l-.3,0a2,2,0,0,0-1.25,1,1.52,1.52,0,0,0-.25.76,1.49,1.49,0,0,0,0,.78c0,.14.39.79.2.47a2.07,2.07,0,0,0,.72.72l.23.09.24.1a.84.84,0,0,0,.27,0l.28,0a2.07,2.07,0,0,0,1.48-.63,1.8,1.8,0,0,0,.44-.69,1.77,1.77,0,0,0,.18-.82,2.31,2.31,0,0,0-.31-1.18,3.26,3.26,0,0,0-.49-.62,1.82,1.82,0,0,0-1.82-.48,2.36,2.36,0,0,0-1.09.66,3.55,3.55,0,0,0-.48.67c-.15.31-.3.62-.46.93a1.81,1.81,0,0,0-.25.94,1.36,1.36,0,0,0,.16.72,1.34,1.34,0,0,0,.38.61,1.93,1.93,0,0,0,.83.48,3.37,3.37,0,0,0,.94.12,2.54,2.54,0,0,0,.68-.09,2.58,2.58,0,0,0,.54-.23,2.34,2.34,0,0,0,.27-.2,2.52,2.52,0,0,0,.35-.3l.17-.2.37-.43-2.94-2.27c-.28.4-.54.81-.83,1.19l.3-.38a.8.8,0,0,1-.13.13l.38-.29-.1.06.45-.19-.07,0,.5-.07h-.1l.5.07-.07,0,.45.19,0,0,.38.3,0,0,.3.38,0,0a1.34,1.34,0,0,0-.48-.52,1.66,1.66,0,0,0-1.39-.37,1.34,1.34,0,0,0-.69.22,1.86,1.86,0,0,0-.86,1.12l-.07.5a2,2,0,0,0,.25.95,1.86,1.86,0,0,0,.54.57,1.81,1.81,0,0,0,.23.18l.44.18h0a2.17,2.17,0,0,0,1.16,0l.05,0,.45-.18,0,0a2.79,2.79,0,0,0,.47-.36l.09-.1c.12-.15.24-.3.35-.46l.78-1.12a1.41,1.41,0,0,0,.22-.69,1.59,1.59,0,0,0,0-.75l-.19-.45a1.36,1.36,0,0,0-.49-.52.82.82,0,0,0-.41-.24,1.37,1.37,0,0,0-.72-.17l-.5.07a1.93,1.93,0,0,0-.83.48l-.36.42a3.92,3.92,0,0,1-.34.37l.37-.3-.1.07.44-.19-.17.05.49-.07a1.07,1.07,0,0,1-.25,0l.5.07-.25-.05,1.12,2.76.33-.67a2.78,2.78,0,0,1,.3-.53l-.29.38a.57.57,0,0,1,.11-.11l-.38.29a.41.41,0,0,1,.11-.07l-.45.19,0,0-1.82-.48.12.14-.29-.38a.6.6,0,0,1,.09.15l-.18-.44,0,.11-.07-.5v.1l.07-.5a.14.14,0,0,0,0,.07l.19-.45a.56.56,0,0,1,0,.08l.29-.38,0,0,.38-.3-.06,0,.45-.19h0l.5-.06h-.05l.5.06h0l.44.19h0l.37.29v0l.29.38v0l.19.45v0l.07.5v0l-.07.5a.11.11,0,0,1,0-.05l-.19.45,0,0-.29.38,0,0-.38.29.06,0-.45.18h.07l-.49.06H660l-.5-.06.07,0-.45-.19.06,0-.38-.29.06.06-.29-.38,0,.07-.19-.45s0,.05,0,.08l-.07-.5a.21.21,0,0,1,0,.11l.07-.5,0,.11.19-.45,0,0,.29-.38,0,0,.38-.29h0l1-.26h-.06l.5.07-.09,0,.45.18-.12-.07.38.3a1.52,1.52,0,0,1-.25-.26l.29.38-.06-.1.26,1v0l-.26.95,0,0-.3.37h0l-.38.29.08,0-.45.18.09,0-.5.07h.14l-.5-.07.14,0-.45-.19.12.07-.38-.3.08.09-.3-.38a.22.22,0,0,1,0,.08l-.19-.45v0a1.37,1.37,0,0,0,.34.64,1.34,1.34,0,0,0,.52.48,1.49,1.49,0,0,0,.7.23,1.47,1.47,0,0,0,.75,0l.44-.19a1.82,1.82,0,0,0,.68-.67l.19-.45a1.85,1.85,0,0,0,0-1Z"/><path class="cls-2" d="M527.64,473.35c-2.93.42-5.14-3.32-7.49-6.75-10.72-15.62-22.08-21.25-19.69-25.28a3.38,3.38,0,0,1,1.81-1.4l5.62-4.81a28.37,28.37,0,0,0,11.9,10.21,25,25,0,0,0,3.52,1.26,7.12,7.12,0,0,0-1.75,4.55c.08,2.17,1.41,3.63,3.26,5.62,5.23,5.61,7.84,8.47,7.58,11.09S529.85,473,527.64,473.35Z"/><path class="cls-21" d="M642.39,386.51c2.6-.91,6.82,4.56,8.08,8.25s1.46,11.16-1.13,12.07-7-5.09-8.26-8.79S639.8,387.42,642.39,386.51Z"/><path class="cls-3" d="M512.55,438.76c6.69-7.48,10.05-12.15,11.89-15.11a62.87,62.87,0,0,1,5.18-7.21c1.51-1.8,2.85-3.18,3.38-3.72,1.75-1.77,3.16-3,3.63-3.38,3.82-3.29,8.41-7.87,11.06-10.51,5.91-5.89,8.87-8.84,10.73-12.28,5.62-10.32,1.81-21.15,3.31-36.87a30.35,30.35,0,0,1,3.13-11.11,29.2,29.2,0,0,1,1.85-3.12,31.31,31.31,0,0,1,8.7-9.08,12.26,12.26,0,0,1,3-1.67c.12.18-2.16,1.76-4.22,3.92a25.27,25.27,0,0,0-4.75,7.14,43.17,43.17,0,0,0-3.29,6.31c-2.15,5.1-2.94,9.72-3.53,17.62-1.23,16.35.48,18.87-2.4,25.66a37.34,37.34,0,0,1-5.53,8.85c-4.84,6.26-7.7,7-17.68,17-2.11,2.12-4.07,4.17-6.18,6.56-2.75,3.13-4.82,5.78-6.05,7.39a131.46,131.46,0,0,0-9.25,14.05Z"/><path class="cls-3" d="M23.48,79.67a34.9,34.9,0,0,1,13.15-2.48c7.26,0,12,3,15.34,9.48,2.61,5,4.15,12.9,4.15,21.91,0,15.15-4.44,25.21-10,29.37v.42c4,3.08,6.48,11.39,7.77,23.34,1.74,16.11,3,27.13,4.07,31.63H50.89c-.84-3.33-2-13.16-3.48-27.59C45.84,150,43,143.84,36.78,143.4H30.31v49.94H23.48Zm6.83,52.46h7c7.32,0,12-8.67,12-21.88,0-15-5-21.48-12.17-21.5a14.62,14.62,0,0,0-6.77,1.31Z"/><path class="cls-3" d="M72.61,78.09V193.34H65.74V78.09Z"/><path class="cls-3" d="M84.51,79.67a43.78,43.78,0,0,1,14.55-2.48c9.8,0,16.82,5,21.45,14.48s7.5,22.67,7.5,41.24c0,18.89-2.71,34.19-7.62,44.83S107.2,194.36,97,194.36a51.4,51.4,0,0,1-12.44-1.29Zm6.87,102a22.86,22.86,0,0,0,6.88.7c14.65.08,22.54-17.7,22.54-48.86.09-27.22-7-44.4-21.41-44.4a19.7,19.7,0,0,0-8,1.52Z"/><path class="cls-3" d="M164.23,139.31H143.7v41.63h23v12.4H136.83V78.09h28.62v12.4H143.7V127h20.53Z"/><path class="cls-3" d="M68.76,256.56c0,39.55-11.07,60.66-24.57,60.66-14,0-23.8-23.66-23.8-58.49,0-36.52,10.38-60.52,24.52-60.52C59.37,198.21,68.76,222.32,68.76,256.56Zm-41.14,1.82c0,24.66,6.16,46.74,16.94,46.74s17-21.72,17-47.91c0-22.94-5.5-46.9-16.87-46.9S27.62,233.17,27.62,258.38Z"/><path class="cls-3" d="M77.6,201.67a34.9,34.9,0,0,1,13.15-2.48c7.26,0,12,3,15.34,9.48,2.62,5.05,4.15,12.9,4.15,21.91,0,15.15-4.44,25.21-10,29.37v.42c4,3.08,6.47,11.39,7.76,23.34,1.74,16.11,3,27.13,4.07,31.63H105c-.83-3.33-2-13.16-3.48-27.59C100,272,97.1,265.84,90.9,265.4H84.43v49.94H77.6Zm6.83,52.46h7c7.32,0,12-8.67,12-21.88,0-15-5-21.48-12.17-21.5a14.62,14.62,0,0,0-6.77,1.31Z"/><path class="cls-3" d="M136.51,201.67a43.78,43.78,0,0,1,14.55-2.48c9.8,0,16.82,5.05,21.45,14.48s7.5,22.67,7.5,41.24c0,18.89-2.71,34.19-7.62,44.83S159.21,316.36,149,316.36a51.4,51.4,0,0,1-12.44-1.29Zm6.87,102a22.9,22.9,0,0,0,6.88.7c14.65.08,22.55-17.7,22.55-48.86.08-27.22-7-44.4-21.41-44.4a19.76,19.76,0,0,0-8,1.52Z"/><path class="cls-3" d="M195.7,200.09V315.34h-6.87V200.09Z"/><path class="cls-3" d="M235,261.31H214.48v41.63h23v12.4H207.6V200.09h28.62v12.4H214.48V249H235Z"/><path class="cls-26" d="M26.34,81.69a35.1,35.1,0,0,1,13.15-2.48c7.26,0,12,3,15.34,9.49,2.62,5,4.15,12.89,4.15,21.91,0,15.14-4.44,25.21-10,29.37v.42c4,3.08,6.47,11.39,7.76,23.34,1.74,16.1,3,27.12,4.07,31.63H53.75c-.83-3.34-2-13.16-3.48-27.6-1.57-15.78-4.43-21.9-10.63-22.35H33.17v50H26.34Zm6.83,52.47h7c7.32,0,12-8.68,12-21.89,0-15-5-21.47-12.17-21.5a14.46,14.46,0,0,0-6.77,1.32Z"/><path class="cls-26" d="M75.47,80.11V195.37H68.6V80.11Z"/><path class="cls-26" d="M87.37,81.69a43.78,43.78,0,0,1,14.55-2.48c9.8,0,16.82,5.06,21.45,14.48s7.5,22.68,7.5,41.24c0,18.9-2.71,34.19-7.62,44.84s-13.18,16.61-23.44,16.61a51.44,51.44,0,0,1-12.44-1.28Zm6.87,102a22.58,22.58,0,0,0,6.88.7c14.65.08,22.55-17.69,22.55-48.85.08-27.23-7-44.4-21.41-44.4a20,20,0,0,0-8,1.51Z"/><path class="cls-26" d="M167.09,141.34H146.56V183h23v12.4H139.69V80.11h28.62v12.4H146.56V129h20.53Z"/><path class="cls-26" d="M71.62,258.59c0,39.54-11.07,60.66-24.57,60.66-14,0-23.8-23.67-23.8-58.5,0-36.52,10.39-60.52,24.52-60.52C62.23,200.23,71.62,224.34,71.62,258.59Zm-41.13,1.82c0,24.66,6.15,46.73,16.93,46.73s17-21.71,17-47.9c0-23-5.5-46.9-16.88-46.9S30.49,235.2,30.49,260.41Z"/><path class="cls-26" d="M80.46,203.69a35.1,35.1,0,0,1,13.15-2.48c7.26,0,12,3,15.34,9.49,2.62,5,4.16,12.89,4.16,21.91,0,15.14-4.44,25.21-10,29.37v.42c4,3.08,6.48,11.39,7.76,23.34,1.74,16.1,3,27.12,4.07,31.63h-7.09c-.83-3.34-2-13.16-3.48-27.6-1.57-15.78-4.43-21.9-10.62-22.35H87.29v49.95H80.46Zm6.83,52.47h7c7.32,0,12-8.68,12-21.89,0-15-5-21.47-12.18-21.5a14.49,14.49,0,0,0-6.77,1.32Z"/><path class="cls-26" d="M139.38,203.69a43.69,43.69,0,0,1,14.55-2.48c9.79,0,16.81,5.06,21.45,14.48s7.49,22.68,7.49,41.24c0,18.9-2.71,34.19-7.61,44.84s-13.19,16.61-23.45,16.61a51.3,51.3,0,0,1-12.43-1.28Zm6.86,102a22.58,22.58,0,0,0,6.88.7c14.66.08,22.55-17.69,22.55-48.85.08-27.23-7-44.4-21.41-44.4a20,20,0,0,0-8,1.51Z"/><path class="cls-26" d="M198.57,202.11V317.37h-6.88V202.11Z"/><path class="cls-26" d="M237.86,263.34H217.34V305h23v12.4H210.47V202.11h28.62v12.4H217.34V251h20.52Z"/><path class="cls-8" d="M43.51,577.8a.73.73,0,0,1,0,.34c-.19.56-1,.68-1.65.84-2.26.57-2.76,1.72-4.08,1.38a2.69,2.69,0,0,1-.69-.31c-.35-.32-.81-.76-1.34-1.29,0,0-14.52-14.49-16.41-33.63,0-.12-.08-.92-.25-2s-.31-1.76-.46-2.42a2.91,2.91,0,0,1,.75-1.67c.71-.74,1.41-.51,3.34-1.31,1.13-.46,1.24-.69,1.75-.68a3.5,3.5,0,0,1,2.5,1.86,3.49,3.49,0,0,0,.82,1.37,3.54,3.54,0,0,0,1.5.87c1.92.6,14.2,13.4,14.3,34.31C43.56,576.57,43.53,577.43,43.51,577.8Z"/><path class="cls-8" d="M25.05,580.52a1,1,0,0,1-.28.2c-.55.23-1.2-.29-1.74-.65-1.94-1.28-3.13-.87-3.77-2.07a2.18,2.18,0,0,1-.23-.71c0-.48,0-1.11.06-1.86,0,0,1-20.4,14.05-34.66.08-.09.62-.68,1.31-1.52s1.1-1.42,1.49-2a3,3,0,0,1,1.75-.57c1,0,1.33.69,3.23,1.57,1.1.51,1.34.44,1.68.83.71.8.55,2.09.3,3.08a3.28,3.28,0,0,0-.47,1.52,3.4,3.4,0,0,0,.36,1.69c.84,1.81-.44,19.44-16,33.58C26,579.72,25.34,580.28,25.05,580.52Z"/><path class="cls-8" d="M53.6,564.15a.79.79,0,0,1,.21.27c.24.53-.26,1.19-.61,1.74-1.23,2-.79,3.13-2,3.79a2.41,2.41,0,0,1-.71.26H48.63s-20.58-.48-35.31-13c-.09-.08-.7-.6-1.56-1.26s-1.46-1.05-2-1.43a2.87,2.87,0,0,1-.62-1.71c0-1,.66-1.34,1.49-3.24.49-1.12.41-1.35.79-1.7.79-.73,2.1-.6,3.1-.38a3.46,3.46,0,0,0,1.54.43,3.7,3.7,0,0,0,1.69-.4c1.81-.89,19.61-.1,34.28,14.92C52.77,563.22,53.35,563.87,53.6,564.15Z"/><path class="cls-8" d="M11,569.85a.78.78,0,0,1-.34-.06c-.54-.24-.61-1.06-.72-1.7-.39-2.28-1.51-2.86-1.06-4.14a2.24,2.24,0,0,1,.36-.66c.35-.32.83-.75,1.41-1.23,0,0,15.68-13.24,35.06-13.63.12,0,.92,0,2-.09s1.8-.18,2.47-.28a3,3,0,0,1,1.62.87c.69.77.4,1.44,1.06,3.41.38,1.15.6,1.27.55,1.78-.1,1.07-1.16,1.84-2.07,2.33a3.31,3.31,0,0,0-2.42,2.12c-.75,1.86-14.57,13-35.59,11.5C12.21,570,11.34,569.89,11,569.85Z"/><path class="cls-8" d="M12.78,558.67c.05-1.15-.41-1.6-.66-2.58-.91-3.55,2.59-7.57,3.91-8.17a5.54,5.54,0,0,0,1-.56,6.22,6.22,0,0,0,1.08-1,8.88,8.88,0,0,0,1.15-1.62c1.31-2.3,7-4.51,9.12-4,.72.18,1.17.25,2.05.4a7.08,7.08,0,0,0,.9.1,5,5,0,0,0,1.54-.2c1.28-.35,6.37.25,9.49,3.47a18.8,18.8,0,0,0,2,2,23.19,23.19,0,0,0,2.8,1.82c3.49,2.43,3.89,7.75,3.08,8.55a1.41,1.41,0,0,0-.46.71,2.2,2.2,0,0,0,0,.88c0,.35.12.59.15.74s.09.36.24,1.4c.2,1.36-.86,8.15-4,9.38a4.28,4.28,0,0,0-1.43.79,4.66,4.66,0,0,0-1.26,1.86c-1,2.45-6.09,5.07-9.49,4.17a7.55,7.55,0,0,0-2.67-.43,7.91,7.91,0,0,0-2.41.56c-3.32,1-8.39-1.71-9.54-4.2a4.49,4.49,0,0,0-1.17-1.65,4.56,4.56,0,0,0-1.8-.92c-2.61-.82-5.62-5.79-4.52-8.93A6.92,6.92,0,0,0,12.78,558.67Z"/><ellipse class="cls-27" cx="31.1" cy="558.74" rx="10.51" ry="10.43"/></g></svg>